<svg id="Layer_1" data-name="Layer 1" xmlns="http://www.w3.org/2000/svg" viewBox="0 0 258.69 60"><defs><style>.cls-1{fill:#fff;}</style></defs><path class="cls-1" d="M17.27.33a1.39,1.39,0,0,1,1.06.44,1.56,1.56,0,0,1,.42,1.1v19.8a1.6,1.6,0,0,1-.48,1.2,1.63,1.63,0,0,1-1.2.48,2,2,0,0,1-.72-.13,1.29,1.29,0,0,1-.56-.36L2.27,5.36,3,4.9V21.84a1.51,1.51,0,0,1-.43,1.07,1.48,1.48,0,0,1-1.09.44,1.44,1.44,0,0,1-1.1-.44A1.54,1.54,0,0,1,0,21.84V2A1.6,1.6,0,0,1,.48.81,1.6,1.6,0,0,1,1.68.33a2.23,2.23,0,0,1,.77.15,1.18,1.18,0,0,1,.61.44L16.25,18.09l-.5.46V1.87a1.59,1.59,0,0,1,.41-1.1A1.48,1.48,0,0,1,17.27.33Z"/><path class="cls-1" d="M27.56,21.67a1.65,1.65,0,0,1-.54,1.2,1.69,1.69,0,0,1-1.2.48,1.61,1.61,0,0,1-1.71-1.68V2A1.57,1.57,0,0,1,24.6.81,1.77,1.77,0,0,1,25.88.33a1.66,1.66,0,0,1,1.17.48A1.55,1.55,0,0,1,27.56,2Z"/><path class="cls-1" d="M49.23,1.64a1.43,1.43,0,0,1,.84,1.12,1.65,1.65,0,0,1-.41,1.38,1.19,1.19,0,0,1-.92.58,2.13,2.13,0,0,1-1.15-.25,10,10,0,0,0-2-.79,8.55,8.55,0,0,0-2.22-.29A8.8,8.8,0,0,0,40,4a7.61,7.61,0,0,0-2.58,1.75,7.36,7.36,0,0,0-1.66,2.66,9.59,9.59,0,0,0-.58,3.42,10,10,0,0,0,.63,3.67,7.68,7.68,0,0,0,1.72,2.69,7,7,0,0,0,2.6,1.65,9.73,9.73,0,0,0,5.43.28,8.57,8.57,0,0,0,2-.79,1.85,1.85,0,0,1,1.15-.21,1.43,1.43,0,0,1,.95.57,1.75,1.75,0,0,1,.4,1.41,1.39,1.39,0,0,1-.82,1.06,12.51,12.51,0,0,1-1.81.8,12.94,12.94,0,0,1-2,.53,11.89,11.89,0,0,1-2.07.18,12.67,12.67,0,0,1-4.49-.79,11.3,11.3,0,0,1-3.75-2.3,10.92,10.92,0,0,1-2.58-3.72,12.47,12.47,0,0,1-1-5,12.1,12.1,0,0,1,.89-4.67A11.42,11.42,0,0,1,35,3.45,11.25,11.25,0,0,1,38.71,1,12.25,12.25,0,0,1,43.38.13a12.19,12.19,0,0,1,5.85,1.51Z"/><path class="cls-1" d="M74.79,11.84A13.06,13.06,0,0,1,74,16.49a11.59,11.59,0,0,1-2.32,3.77,10.93,10.93,0,0,1-16,0,11.42,11.42,0,0,1-2.32-3.77,13.06,13.06,0,0,1-.82-4.65,13.06,13.06,0,0,1,.82-4.65,11.53,11.53,0,0,1,2.32-3.77,11,11,0,0,1,16,0A11.7,11.7,0,0,1,74,7.19,13.06,13.06,0,0,1,74.79,11.84Zm-3.55,0a9.47,9.47,0,0,0-1-4.37,7.77,7.77,0,0,0-2.68-3.06,7.44,7.44,0,0,0-7.85,0,7.57,7.57,0,0,0-2.66,3,9.7,9.7,0,0,0-1,4.39,9.71,9.71,0,0,0,1,4.37,7.5,7.5,0,0,0,2.66,3.06,7.44,7.44,0,0,0,7.85,0,7.77,7.77,0,0,0,2.68-3.06A9.47,9.47,0,0,0,71.24,11.84Z"/><path class="cls-1" d="M91.53,20.13a1.65,1.65,0,0,1,1.2.46,1.64,1.64,0,0,1,0,2.3,1.65,1.65,0,0,1-1.2.46h-11a1.63,1.63,0,0,1-1.2-.48,1.6,1.6,0,0,1-.48-1.2V2a1.58,1.58,0,0,1,.5-1.2A1.74,1.74,0,0,1,80.61.33a1.66,1.66,0,0,1,1.17.48A1.55,1.55,0,0,1,82.29,2V20.69l-.7-.56Z"/><path class="cls-1" d="M98.66.33H110a1.65,1.65,0,0,1,1.2.46,1.53,1.53,0,0,1,.48,1.15,1.44,1.44,0,0,1-.48,1.12,1.76,1.76,0,0,1-1.2.43h-9.9l.33-.56v7.36l-.3-.32h8.39a1.65,1.65,0,0,1,1.2.46,1.55,1.55,0,0,1,.48,1.18,1.44,1.44,0,0,1-.48,1.12,1.76,1.76,0,0,1-1.2.43h-8.32l.23-.3v7.6l-.23-.27H110a1.63,1.63,0,0,1,1.2.48,1.52,1.52,0,0,1,.48,1.1,1.5,1.5,0,0,1-.48,1.14,1.72,1.72,0,0,1-1.2.44H98.66A1.62,1.62,0,0,1,97,21.67V2A1.62,1.62,0,0,1,98.66.33Z"/><path class="cls-1" d="M151.06.23a1.88,1.88,0,0,1,1.2.48,1.61,1.61,0,0,1,.57,1.3,1.7,1.7,0,0,1-.1.56L146,22.3a1.41,1.41,0,0,1-.59.76,2,2,0,0,1-.89.29,1.89,1.89,0,0,1-.92-.26,1.62,1.62,0,0,1-.69-.79l-5.2-12.17.3.13-5.13,12a1.89,1.89,0,0,1-.71.79,1.85,1.85,0,0,1-.94.26,2.08,2.08,0,0,1-.87-.29,1.4,1.4,0,0,1-.61-.76L123,2.57a2.89,2.89,0,0,1-.06-.56,1.56,1.56,0,0,1,.59-1.3,1.9,1.9,0,0,1,1.21-.48,1.72,1.72,0,0,1,1,.28,1.43,1.43,0,0,1,.61.81l5.69,17h-.59l5-12.24a2,2,0,0,1,.64-.79,1.83,1.83,0,0,1,1.88,0,1.76,1.76,0,0,1,.6.79l4.71,11.87-.46.27,5.65-16.87a1.42,1.42,0,0,1,.63-.81A1.86,1.86,0,0,1,151.06.23Z"/><path class="cls-1" d="M157.86.33h11.35a1.65,1.65,0,0,1,1.2.46,1.53,1.53,0,0,1,.48,1.15,1.44,1.44,0,0,1-.48,1.12,1.76,1.76,0,0,1-1.2.43h-9.9l.33-.56v7.36l-.3-.32h8.39a1.65,1.65,0,0,1,1.2.46,1.55,1.55,0,0,1,.48,1.18,1.44,1.44,0,0,1-.48,1.12,1.76,1.76,0,0,1-1.2.43h-8.32l.23-.3v7.6l-.23-.27h9.8a1.63,1.63,0,0,1,1.2.48,1.52,1.52,0,0,1,.48,1.1,1.5,1.5,0,0,1-.48,1.14,1.72,1.72,0,0,1-1.2.44H157.86a1.62,1.62,0,0,1-1.67-1.68V2A1.62,1.62,0,0,1,157.86.33Z"/><path class="cls-1" d="M176.94,23.35a2.11,2.11,0,0,1-1.38-.48,1.44,1.44,0,0,1-.59-1.2V2A1.62,1.62,0,0,1,176.64.33h9.28a6.28,6.28,0,0,1,3.25.87,6.63,6.63,0,0,1,2.39,2.4,6.85,6.85,0,0,1,.9,3.54,6.12,6.12,0,0,1-.52,2.5,7.21,7.21,0,0,1-1.42,2.1,6.26,6.26,0,0,1-2,1.42l-.37-.66a5.67,5.67,0,0,1,1.78,1.07,4.88,4.88,0,0,1,1.2,1.58,4.73,4.73,0,0,1,.48,2c.06.68.12,1.24.18,1.69A4.38,4.38,0,0,0,192,20a1.19,1.19,0,0,0,.59.66,1.47,1.47,0,0,1,.74,1,1.33,1.33,0,0,1-.28,1.18,1.27,1.27,0,0,1-.76.51,2,2,0,0,1-.92,0,2.35,2.35,0,0,1-.76-.24,4.38,4.38,0,0,1-1.08-.94,4.61,4.61,0,0,1-.86-1.69,10.16,10.16,0,0,1-.33-2.86,3.27,3.27,0,0,0-.26-1.4,2.6,2.6,0,0,0-.72-1,2.63,2.63,0,0,0-1.09-.56,5.32,5.32,0,0,0-1.38-.17h-7l.46-.69v7.86a1.8,1.8,0,0,1-.39,1.2A1.35,1.35,0,0,1,176.94,23.35ZM178,11.61h7.86A2.44,2.44,0,0,0,187.3,11a4.32,4.32,0,0,0,1.15-1.56,5.31,5.31,0,0,0,.46-2.26A3.83,3.83,0,0,0,188,4.56a2.83,2.83,0,0,0-2.22-1.07h-7.69l.36-.83V12.3Z"/><path class="cls-1" d="M214.63.33a1.42,1.42,0,0,1,1.07.44,1.59,1.59,0,0,1,.41,1.1v19.8a1.6,1.6,0,0,1-.48,1.2,1.63,1.63,0,0,1-1.2.48,2,2,0,0,1-.72-.13,1.36,1.36,0,0,1-.56-.36L199.63,5.36l.76-.46V21.84a1.47,1.47,0,0,1-.43,1.07,1.45,1.45,0,0,1-1.08.44,1.48,1.48,0,0,1-1.11-.44,1.54,1.54,0,0,1-.41-1.07V2a1.6,1.6,0,0,1,.48-1.2A1.63,1.63,0,0,1,199,.33a2.23,2.23,0,0,1,.77.15,1.14,1.14,0,0,1,.61.44l13.19,17.17-.49.46V1.87a1.55,1.55,0,0,1,.41-1.1A1.44,1.44,0,0,1,214.63.33Z"/><path class="cls-1" d="M223.15.33h11.34a1.62,1.62,0,0,1,1.2.46,1.53,1.53,0,0,1,.48,1.15,1.44,1.44,0,0,1-.48,1.12,1.73,1.73,0,0,1-1.2.43h-9.9l.33-.56v7.36l-.29-.32H233a1.62,1.62,0,0,1,1.2.46,1.55,1.55,0,0,1,.48,1.18,1.44,1.44,0,0,1-.48,1.12,1.73,1.73,0,0,1-1.2.43h-8.32l.23-.3v7.6l-.23-.27h9.8a1.6,1.6,0,0,1,1.2.48,1.52,1.52,0,0,1,.48,1.1,1.5,1.5,0,0,1-.48,1.14,1.69,1.69,0,0,1-1.2.44H223.15a1.64,1.64,0,0,1-1.68-1.68V2A1.6,1.6,0,0,1,222,.81,1.6,1.6,0,0,1,223.15.33Z"/><path class="cls-1" d="M242.22,23.35a2.15,2.15,0,0,1-1.38-.48,1.47,1.47,0,0,1-.59-1.2V2a1.6,1.6,0,0,1,.48-1.2,1.6,1.6,0,0,1,1.2-.48h9.27a6.32,6.32,0,0,1,3.26.87,6.68,6.68,0,0,1,2.38,2.4,6.86,6.86,0,0,1,.91,3.54,6.13,6.13,0,0,1-.53,2.5,7.17,7.17,0,0,1-1.41,2.1,6.41,6.41,0,0,1-2,1.42l-.36-.66a5.62,5.62,0,0,1,1.77,1.07,4.88,4.88,0,0,1,1.2,1.58,4.73,4.73,0,0,1,.48,2c.07.68.13,1.24.18,1.69a4.87,4.87,0,0,0,.25,1.1,1.23,1.23,0,0,0,.59.66,1.44,1.44,0,0,1,.74,1,1.3,1.3,0,0,1-.28,1.18,1.27,1.27,0,0,1-.76.51,2,2,0,0,1-.92,0,2.36,2.36,0,0,1-.75-.24,4.24,4.24,0,0,1-1.09-.94,4.6,4.6,0,0,1-.85-1.69,10.16,10.16,0,0,1-.33-2.86,3.43,3.43,0,0,0-.26-1.4,2.73,2.73,0,0,0-.73-1,2.66,2.66,0,0,0-1.08-.56,5.43,5.43,0,0,0-1.38-.17h-7l.46-.69v7.86a1.8,1.8,0,0,1-.39,1.2A1.33,1.33,0,0,1,242.22,23.35Zm1.06-11.74h7.86a2.44,2.44,0,0,0,1.44-.59,4.21,4.21,0,0,0,1.15-1.56,5.31,5.31,0,0,0,.46-2.26,3.87,3.87,0,0,0-.93-2.64A2.86,2.86,0,0,0,251,3.49h-7.7l.36-.83V12.3Z"/><path class="cls-1" d="M47.42,39.87a.81.81,0,0,1,.61.25.85.85,0,0,1,.24.6v8A5.56,5.56,0,0,1,46.68,53a6,6,0,0,1-4.3,1.48A6,6,0,0,1,38.11,53a5.55,5.55,0,0,1-1.58-4.29v-8a.82.82,0,0,1,.25-.6.85.85,0,0,1,.63-.25.81.81,0,0,1,.61.25.85.85,0,0,1,.24.6v8a3.78,3.78,0,0,0,4.12,4.18,4.21,4.21,0,0,0,3.06-1.07,4.15,4.15,0,0,0,1.1-3.11v-8a.85.85,0,0,1,.24-.6A.83.83,0,0,1,47.42,39.87Z"/><path class="cls-1" d="M52.34,39.64A.78.78,0,0,1,53,40L63.09,53a.78.78,0,0,1,.2.51.89.89,0,0,1-.86.86,1,1,0,0,1-.71-.37L51.63,41a.79.79,0,0,1-.17-.51.82.82,0,0,1,.27-.64A.89.89,0,0,1,52.34,39.64Zm0,14.76a1,1,0,0,1-.56-.2.66.66,0,0,1-.27-.57.8.8,0,0,1,.2-.54l4.81-6.17.94,1.39L53,54.06A.83.83,0,0,1,52.34,54.4ZM62.43,39.64a.82.82,0,0,1,.59.21.72.72,0,0,1,.21.53,1.35,1.35,0,0,1,0,.28A1,1,0,0,1,63,41l-4.81,6.28-.91-1.36L61.72,40A.92.92,0,0,1,62.43,39.64Z"/><path class="cls-1" d="M65.25,58a.75.75,0,0,1-.57-.24.84.84,0,0,1-.23-.59.9.9,0,0,1,.12-.42L76.93,32.27a1.58,1.58,0,0,1,.42-.54.94.94,0,0,1,.52-.14.73.73,0,0,1,.5.22.69.69,0,0,1,.24.55,1.34,1.34,0,0,1-.11.51L66.13,57.38a1.78,1.78,0,0,1-.4.47A.71.71,0,0,1,65.25,58Z"/><path class="cls-1" d="M92.18,39.87a.81.81,0,0,1,.61.25.85.85,0,0,1,.24.6v8A5.56,5.56,0,0,1,91.44,53a7,7,0,0,1-8.58,0,5.58,5.58,0,0,1-1.57-4.29v-8a.82.82,0,0,1,.25-.6.85.85,0,0,1,.63-.25.81.81,0,0,1,.61.25.85.85,0,0,1,.24.6v8a3.76,3.76,0,0,0,4.12,4.18,4.21,4.21,0,0,0,3.06-1.07,4.15,4.15,0,0,0,1.09-3.11v-8a.86.86,0,0,1,.25-.6A.83.83,0,0,1,92.18,39.87Z"/><path class="cls-1" d="M98.29,37.62a1.31,1.31,0,0,1-.9-.27,1,1,0,0,1-.29-.78v-.29a.94.94,0,0,1,.32-.78,1.38,1.38,0,0,1,.9-.27,1.21,1.21,0,0,1,.84.27,1,1,0,0,1,.3.78v.29a1,1,0,0,1-.3.78A1.26,1.26,0,0,1,98.29,37.62Zm.85,15.84a.85.85,0,0,1-.85.85.81.81,0,0,1-.63-.25.87.87,0,0,1-.22-.6V40.38a.85.85,0,0,1,.24-.6.87.87,0,0,1,1.22,0,.85.85,0,0,1,.24.6Z"/><path class="cls-1" d="M123.26,33.27a.78.78,0,0,1,.61.26.84.84,0,0,1,.24.59V53.46a.83.83,0,0,1-.26.6.81.81,0,0,1-.59.25.79.79,0,0,1-.63-.25.88.88,0,0,1-.23-.6V50.08l.49-.4a3.88,3.88,0,0,1-.43,1.69A5.33,5.33,0,0,1,121.25,53a6.27,6.27,0,0,1-1.82,1.18,5.36,5.36,0,0,1-2.23.46,6.1,6.1,0,0,1-3.43-1,7,7,0,0,1-2.4-2.7,9,9,0,0,1,0-7.78,7,7,0,0,1,2.39-2.7,6.08,6.08,0,0,1,3.38-1,5.82,5.82,0,0,1,2.25.43A6.14,6.14,0,0,1,121.25,41a5.77,5.77,0,0,1,1.28,1.69,4.5,4.5,0,0,1,.47,2l-.6-.43V34.12a.88.88,0,0,1,.23-.59A.77.77,0,0,1,123.26,33.27ZM117.34,53a4.68,4.68,0,0,0,2.69-.78,5.43,5.43,0,0,0,1.82-2.13,7,7,0,0,0,.67-3.09,6.87,6.87,0,0,0-.67-3A5.3,5.3,0,0,0,120,41.83a4.73,4.73,0,0,0-2.67-.77,4.81,4.81,0,0,0-2.66.77A5.32,5.32,0,0,0,112.83,44a6.86,6.86,0,0,0-.66,3,7,7,0,0,0,.66,3.08,5.38,5.38,0,0,0,1.85,2.14A4.74,4.74,0,0,0,117.34,53Z"/><path class="cls-1" d="M135.14,54.6a7.86,7.86,0,0,1-3.87-.94A6.71,6.71,0,0,1,128.66,51a7.84,7.84,0,0,1-.94-3.92,8.43,8.43,0,0,1,.95-4.13,7.07,7.07,0,0,1,2.48-2.63,6.15,6.15,0,0,1,3.22-.92,7,7,0,0,1,2.44.44,6.31,6.31,0,0,1,3.58,3.43,7.79,7.79,0,0,1,.61,2.9.89.89,0,0,1-.88.82h-11.4l-.35-1.53h11.21l-.37.34v-.57a4.33,4.33,0,0,0-.88-2.26,5.07,5.07,0,0,0-1.78-1.42,5,5,0,0,0-2.18-.5,4.8,4.8,0,0,0-1.74.34A4.61,4.61,0,0,0,131,42.5a5.43,5.43,0,0,0-1.17,1.85,7.48,7.48,0,0,0,.22,5.7,5.29,5.29,0,0,0,2,2.16,5.76,5.76,0,0,0,3.08.79,5,5,0,0,0,3.17-1,5.57,5.57,0,0,0,1-1,.93.93,0,0,1,.6-.26.72.72,0,0,1,.53.23.73.73,0,0,1,.21.51.78.78,0,0,1-.28.6,7.67,7.67,0,0,1-2.22,1.77A6,6,0,0,1,135.14,54.6Z"/><path class="cls-1" d="M143.82,52a1.07,1.07,0,0,1-.22-.67.64.64,0,0,1,.36-.53.7.7,0,0,1,.52-.17.93.93,0,0,1,.56.29,6.12,6.12,0,0,0,1.86,1.61,5.34,5.34,0,0,0,2.6.61,4.81,4.81,0,0,0,1.58-.27,3.1,3.1,0,0,0,1.29-.83,2,2,0,0,0,.52-1.41,1.89,1.89,0,0,0-.52-1.4,3.83,3.83,0,0,0-1.32-.86,13.32,13.32,0,0,0-1.75-.55c-.64-.17-1.26-.37-1.86-.58a7.18,7.18,0,0,1-1.61-.83,3.8,3.8,0,0,1-1.12-1.21,3.43,3.43,0,0,1-.41-1.73,3.56,3.56,0,0,1,.64-2.11A4.23,4.23,0,0,1,146.72,40a6.08,6.08,0,0,1,2.53-.51,6.77,6.77,0,0,1,1.56.19,6,6,0,0,1,1.62.61,4.74,4.74,0,0,1,1.42,1.16.82.82,0,0,1,.26.59.87.87,0,0,1-.29.61.78.78,0,0,1-.52.15.68.68,0,0,1-.5-.24,4.33,4.33,0,0,0-1.62-1.15,5.22,5.22,0,0,0-2-.38,4.62,4.62,0,0,0-1.55.25,2.89,2.89,0,0,0-1.21.8,2.05,2.05,0,0,0-.48,1.42,2,2,0,0,0,.58,1.34,4.21,4.21,0,0,0,1.4.85,16.41,16.41,0,0,0,1.94.63,15.52,15.52,0,0,1,1.75.54,5.62,5.62,0,0,1,1.48.78,3.45,3.45,0,0,1,1,1.18,3.8,3.8,0,0,1,.38,1.79,3.43,3.43,0,0,1-.7,2.16,4.32,4.32,0,0,1-1.86,1.39,6.57,6.57,0,0,1-2.59.49,7.65,7.65,0,0,1-3-.6A6.31,6.31,0,0,1,143.82,52Z"/><path class="cls-1" d="M158.77,37.62a1.28,1.28,0,0,1-.89-.27,1,1,0,0,1-.3-.78v-.29a1,1,0,0,1,.33-.78,1.33,1.33,0,0,1,.89-.27,1.21,1.21,0,0,1,.84.27,1,1,0,0,1,.3.78v.29a1,1,0,0,1-.3.78A1.26,1.26,0,0,1,158.77,37.62Zm.86,15.84a.83.83,0,0,1-.26.6.82.82,0,0,1-.6.25.79.79,0,0,1-.62-.25.88.88,0,0,1-.23-.6V40.38a.85.85,0,0,1,.24-.6.81.81,0,0,1,.61-.25.79.79,0,0,1,.61.25.86.86,0,0,1,.25.6Z"/><path class="cls-1" d="M170.12,39.44a6.19,6.19,0,0,1,2.33.44A6.85,6.85,0,0,1,174.34,41a6,6,0,0,1,1.27,1.48,3,3,0,0,1,.45,1.49l-.45-.68V40.66a.88.88,0,0,1,.24-.62.8.8,0,0,1,.61-.26.81.81,0,0,1,.63.26.91.91,0,0,1,.22.62V53a7.22,7.22,0,0,1-.94,3.81,6.07,6.07,0,0,1-2.54,2.38,8,8,0,0,1-3.65.81,9.12,9.12,0,0,1-2.09-.26,8.08,8.08,0,0,1-1.88-.65c-.52-.27-.81-.54-.87-.82a.72.72,0,0,1-.21-.5.54.54,0,0,1,.24-.41.51.51,0,0,1,.58,0c.22.11.54.24,1,.42l.76.25a10.17,10.17,0,0,0,1.16.3,8,8,0,0,0,1.41.13,5,5,0,0,0,5.38-5.29V50.39l.31.08a4.93,4.93,0,0,1-.85,1.77,6,6,0,0,1-1.38,1.29,6.09,6.09,0,0,1-1.71.8,6.62,6.62,0,0,1-5.37-.73,6.9,6.9,0,0,1-2.49-2.7,8.77,8.77,0,0,1,0-7.78,7,7,0,0,1,2.47-2.7A6.53,6.53,0,0,1,170.12,39.44Zm.2,1.62a5.19,5.19,0,0,0-2.8.77A5.3,5.3,0,0,0,165.58,44a6.61,6.61,0,0,0-.69,3,6.74,6.74,0,0,0,.69,3.08,5.36,5.36,0,0,0,1.94,2.14,5.4,5.4,0,0,0,5.56,0A5.5,5.5,0,0,0,175,50.12a7.17,7.17,0,0,0,0-6.22,5.41,5.41,0,0,0-1.93-2.09A5.2,5.2,0,0,0,170.32,41.06Z"/><path class="cls-1" d="M188.66,39.44a5.33,5.33,0,0,1,3,.75,4.27,4.27,0,0,1,1.62,2.05,8,8,0,0,1,.5,2.86v8.36a.83.83,0,0,1-.26.6.82.82,0,0,1-.6.25.84.84,0,0,1-.88-.85V45.18a5.53,5.53,0,0,0-.37-2.07,3.07,3.07,0,0,0-1.19-1.49,3.86,3.86,0,0,0-2.19-.56,5.06,5.06,0,0,0-2.32.56,4.89,4.89,0,0,0-1.78,1.49,3.47,3.47,0,0,0-.68,2.07v8.28a.85.85,0,0,1-.85.85.83.83,0,0,1-.64-.25.85.85,0,0,1-.24-.6V40.72a.82.82,0,0,1,.25-.6.85.85,0,0,1,.63-.25.81.81,0,0,1,.61.25.85.85,0,0,1,.24.6v2.39l-.65,1a3.75,3.75,0,0,1,.58-1.75,6,6,0,0,1,1.35-1.5,6.59,6.59,0,0,1,1.84-1.06A5.79,5.79,0,0,1,188.66,39.44Z"/><path class="cls-1" d="M204.81,54.6a7.86,7.86,0,0,1-3.87-.94A6.64,6.64,0,0,1,198.33,51a7.84,7.84,0,0,1-.94-3.92,8.43,8.43,0,0,1,1-4.13,7.12,7.12,0,0,1,2.47-2.63,6.18,6.18,0,0,1,3.23-.92,6.92,6.92,0,0,1,2.43.44,6.34,6.34,0,0,1,2.11,1.31,6.51,6.51,0,0,1,1.48,2.12,7.79,7.79,0,0,1,.61,2.9.88.88,0,0,1-.29.58.84.84,0,0,1-.59.24H198.38L198,45.5h11.21l-.37.34v-.57A4.33,4.33,0,0,0,208,43a5.07,5.07,0,0,0-1.78-1.42,5,5,0,0,0-2.18-.5,4.85,4.85,0,0,0-1.75.34,4.67,4.67,0,0,0-1.62,1.07,5.6,5.6,0,0,0-1.18,1.85A7.07,7.07,0,0,0,199,47a6.8,6.8,0,0,0,.68,3,5.22,5.22,0,0,0,2,2.16,5.76,5.76,0,0,0,3.08.79,5.16,5.16,0,0,0,1.78-.28A5.3,5.3,0,0,0,208,52a5.57,5.57,0,0,0,1-1,.93.93,0,0,1,.6-.26.72.72,0,0,1,.53.23.73.73,0,0,1,.21.51.79.79,0,0,1-.29.6,7.49,7.49,0,0,1-2.21,1.77A6,6,0,0,1,204.81,54.6Z"/><path class="cls-1" d="M215.16,54.31a.84.84,0,0,1-.88-.85V40.72a.79.79,0,0,1,.26-.6.83.83,0,0,1,.62-.25.79.79,0,0,1,.61.25.85.85,0,0,1,.24.6V45l-.42.08a6.53,6.53,0,0,1,.49-2,6.81,6.81,0,0,1,1.13-1.8A5.66,5.66,0,0,1,218.9,40a4.69,4.69,0,0,1,2.2-.51,2.46,2.46,0,0,1,1,.21.73.73,0,0,1,.48.7.88.88,0,0,1-.22.65.73.73,0,0,1-.54.23,1.36,1.36,0,0,1-.56-.14,1.76,1.76,0,0,0-.78-.14,3,3,0,0,0-1.59.47,5.35,5.35,0,0,0-1.45,1.26,6.35,6.35,0,0,0-1,1.78,5.29,5.29,0,0,0-.39,2v7a.85.85,0,0,1-.85.85Z"/></svg>