<svg xmlns="http://www.w3.org/2000/svg" xmlns:xlink="http://www.w3.org/1999/xlink" viewBox="0 0 559.46 375.06"><defs><style>.cls-1{isolation:isolate;}.cls-2{fill:none;stroke:#fc0;stroke-linecap:round;stroke-miterlimit:10;}.cls-3{fill:#42210b;mix-blend-mode:multiply;opacity:0.15;}.cls-4{fill:#d34a46;}.cls-5{fill:#e55c55;}.cls-6{fill:#545454;}.cls-7{fill:#aaa;}.cls-8{fill:#c4c4c4;}.cls-9{fill:#e2e2e2;}.cls-10{fill:#ceac91;}.cls-11{fill:#252d3d;}.cls-12{fill:#d3d3d3;}.cls-13{opacity:0.11;}.cls-14{fill:#e5a185;}.cls-15{fill:#313f59;}.cls-16{fill:#353f59;}.cls-17{fill:#f4615d;}.cls-18{fill:#ffffef;}.cls-19{fill:#777;}.cls-20{fill:#9a9897;}.cls-21{fill:#3d3d3d;}.cls-22{fill:url(#_ÂÁ_Ï_ÌÌ_È_ËÂÌÚ_4);}.cls-23{fill:#c19d84;}.cls-24{fill:#bc9982;}.cls-25{fill:#c6a38b;}.cls-26{fill:#c58071;}.cls-27{opacity:0.1;}.cls-28{fill:#cc8f58;}.cls-29{fill:#e8ceb5;}.cls-30{fill:#63442a;}.cls-31{opacity:0.07;}.cls-32,.cls-41{fill:#fff;}.cls-33{fill:#eaeaea;}.cls-34{fill:#e4c9ab;}.cls-35{fill:#fcc2a3;}.cls-35,.cls-47{opacity:0.13;}.cls-36{fill:#fffffe;}.cls-37{fill:#d78c74;}.cls-38{fill:#ededed;}.cls-39{fill:#c78575;}.cls-40{fill:#381911;}.cls-41{opacity:0.14;}.cls-42{fill:#ffaa85;opacity:0.12;}.cls-43{fill:#f2f2f2;}.cls-44,.cls-45{fill:#4f372d;}.cls-45{opacity:0.24;}.cls-46{fill:#422e26;}.cls-47{fill:#f28f19;}</style><linearGradient id="_ÂÁ_Ï_ÌÌ_È_ËÂÌÚ_4" x1="183.1" y1="105.87" x2="254.44" y2="178.87" gradientUnits="userSpaceOnUse"><stop offset="0" stop-color="#d1d1d1"/><stop offset="1" stop-color="#b3b3b3"/></linearGradient></defs><g class="cls-1"><g id="Layer_2" data-name="Layer 2"><g id="_ÎÓÈ_1" data-name="—ÎÓÈ_1"><path class="cls-2" d="M288.21,70.45c-.37,3.64-2,6.38-3.92,6.38-2.2,0-4-3.58-4-8s1.8-8,4-8"/><path class="cls-3" d="M559.46,360.93s-125.24,14.13-279.73,14.13S0,360.93,0,360.93,125.24,346.8,279.73,346.8,559.46,360.93,559.46,360.93Z"/><path class="cls-4" d="M208.9,165.55c-1.11,0-1.79,0-2,0l.58-13c.26,0,27.16.94,45.94-13.65,10.92-8.47,24.2-29.65,30.83-41.44,3.74-6.66,8.84-8.07,16.47-8.27l1.22,0c-.78,1.67-21.42,45.17-40.54,60C241.8,164.4,216.18,165.55,208.9,165.55Z"/><path class="cls-5" d="M287.87,105.47c-1,1,1.69,5.92,1.56,7.28,7.2-12.32,12.17-22.82,12.55-23.62l-1.22,0c-5.86.15-10.86.74-14.11,5.45C282.68,100.36,292.12,101.5,287.87,105.47Z"/><path class="cls-6" d="M344.85,253.22s-2.73-.67-2,2.1,3.3.68,3.3.68Z"/><path class="cls-6" d="M365.22,296.51c-.22,0-3.11.54-2.32,2.32,1.12,2.56,3.67.81,3.67.81Z"/><path class="cls-6" d="M275.57,254c.23-.18,2.64.59,1.29,2.84s-2.58-.17-2.58-.17Z"/><path class="cls-6" d="M254.22,296.81s4.1.66,3,2.84-4,.46-4,.46Z"/><path class="cls-7" d="M268.11,254.62h0a2.42,2.42,0,0,1-1.64-3.53L274,234.55a3.92,3.92,0,0,1,4.22-2.18h0a2.41,2.41,0,0,1,1.64,3.52l-7.51,16.54A4,4,0,0,1,268.11,254.62Z"/><rect class="cls-7" x="320.5" y="231.06" width="5.39" height="29.9" rx="2.19" transform="translate(673.9 450.9) rotate(173.02)"/><path class="cls-8" d="M278.56,216.46c12.18-1.23,22.43-8.05,26.67-17.74,10.21-23.31,21.15-69.52,67.25-66.34L383.26,138c-3.34,15.14,12.78,75.93-14.66,93.12-24.91,15.6-118.54,10.2-148.74-7.18,0,0,.46-4,29.91-5.53C261.62,217.76,271.07,217.21,278.56,216.46Z"/><path class="cls-9" d="M271.44,209.34c12.18-1.23,22.43-8.05,26.67-17.74,10.2-23.31,14.27-70.65,60.37-67.47,0,0,31.4-1.24,23.75,17.34s6,70-16.09,78.33-118,9.75-139.34,5.89-13.6-12.88,15.84-14.43C254.5,210.64,264,210.09,271.44,209.34Z"/><path class="cls-10" d="M263.91,251.18h11a1.63,1.63,0,0,1,1.48,2.34l-49.28,104a1.65,1.65,0,0,1-1.49.94h0a1.65,1.65,0,0,1-1.54-2.21l38.24-103.95A1.64,1.64,0,0,1,263.91,251.18Z"/><path class="cls-6" d="M228.1,355.33l-3.65,0a5.52,5.52,0,0,0-2.36,3.73l7-.21S229.7,356.48,228.1,355.33Z"/><rect class="cls-6" x="220.94" y="358.41" width="9.24" height="1.31" rx="0.53"/><rect class="cls-6" x="286.03" y="358.41" width="9.24" height="1.31" rx="0.53"/><path class="cls-7" d="M352.05,254.62h0a2.42,2.42,0,0,0,1.64-3.53l-7.52-16.54a3.92,3.92,0,0,0-4.22-2.18h0a2.41,2.41,0,0,0-1.64,3.52l7.52,16.54A3.94,3.94,0,0,0,352.05,254.62Z"/><path class="cls-10" d="M356.25,251.18H345.2a1.64,1.64,0,0,0-1.48,2.34l49.29,104a1.64,1.64,0,0,0,1.48.94h0A1.65,1.65,0,0,0,396,356.2L357.79,252.25A1.64,1.64,0,0,0,356.25,251.18Z"/><path class="cls-6" d="M392.06,355.33l3.65,0a5.47,5.47,0,0,1,2.36,3.73l-7-.21S390.47,356.48,392.06,355.33Z"/><path class="cls-10" d="M331.37,252.92l.37,103.64a1.87,1.87,0,0,1-1.94,1.85h0a1.9,1.9,0,0,1-1.92-1.56L316.19,253.2a1.84,1.84,0,0,1,1.92-2h11.32A1.88,1.88,0,0,1,331.37,252.92Z"/><path class="cls-6" d="M327.65,355.22h4.05a6.09,6.09,0,0,1,2.5,3.86l-7-.21S326.06,356.37,327.65,355.22Z"/><path class="cls-6" d="M364.59,297.54,311.14,239,255,298.78c.58.24,1.1,0,1.61.35l54.53-57.5,52,56.36C363.56,297.6,364.05,297.84,364.59,297.54Z"/><rect class="cls-6" x="389.98" y="358.41" width="9.24" height="1.31" rx="0.53" transform="translate(789.21 718.13) rotate(-180)"/><rect class="cls-6" x="325.89" y="358.41" width="9.24" height="1.31" rx="0.53" transform="translate(661.01 718.13) rotate(-180)"/><path class="cls-6" d="M343.9,254.24l-.2-.24-52,43.52L276.55,256a8.72,8.72,0,0,1-1.52.69l-.12.05,16,43.81,53.51-44.76A10.18,10.18,0,0,1,343.9,254.24Z"/><rect class="cls-7" x="294.15" y="233.02" width="5.39" height="27.93" rx="2.19" transform="translate(32.23 -34.26) rotate(6.98)"/><path class="cls-10" d="M288.8,252.92l.62,103.64a1.87,1.87,0,0,0,1.94,1.85h0a1.9,1.9,0,0,0,1.92-1.56L304,253.2a1.84,1.84,0,0,0-1.92-2H290.73A1.87,1.87,0,0,0,288.8,252.92Z"/><path class="cls-6" d="M293.51,355.22h-4.05a6.13,6.13,0,0,0-2.5,3.86l7-.21S295.11,356.37,293.51,355.22Z"/><path class="cls-6" d="M308,239.42s-3.53,4.32,2.93,4.07,3.52-4.07,3.52-4.07a6.32,6.32,0,0,0-3.37-.9A6.23,6.23,0,0,0,308,239.42Z"/><path class="cls-11" d="M341.43,191.66s17,23.93-1.81,35.63-72.93,2.8-72.93,2.8l-14.9-43.9s23.31-.07,38,9.3l2-7.81s2.81-2.05,27.56,7.57S341.43,191.66,341.43,191.66Z"/><path class="cls-12" d="M321.92,90.78a191.17,191.17,0,0,0-24.39-1.13,60.54,60.54,0,0,1-3.15,5.47q-1.28,2.25-2.43,4.56c-1.67,4.27-3.46,8.5-5.26,12.72s-3.72,5.6-5.6,9.89a8.4,8.4,0,0,0,.66.59s-.64,2.54-1.63,6.63c12.29,4.19,24.63,8.23,37.07,12,1.4-8.26,6.55-22.32,10.53-34.59l-.51-1.12C325,100.88,323.64,95.78,321.92,90.78Z"/><path class="cls-5" d="M316.84,145.34c-.42-4.93,7.11-23,11.9-37.76-.17-.38-1.36-1.45-1.53-1.82-2.2-4.88,12.82-10.82-1-14.67a39.92,39.92,0,0,0-6.38-.53c-2,4.49-4.08,9.17-8.21,12.08a12.19,12.19,0,0,1-7.5,2.66,10.44,10.44,0,0,1-7.18-3.42c-1.62-1.64,2.46-10,2.36-12.38-6.89.74-7.81,13.73-12,16.38-10.31,6.55-11,14-9.8,18,1.78,6.17,2.1,7.58,1.6,9.7q-1.8,7.59-3.45,15.21c-2.33,10.79-7.82,35.87-7.85,37.49-.32,17.67,83.32,42,80.14,20.6C343.6,177.38,317.48,153.11,316.84,145.34Z"/><path class="cls-13" d="M348,206.87c-4.39-29.49-30.51-53.76-31.15-61.53-.41-4.88,6.94-22.58,11.74-37.26-11.81,11.73-34,13.93-51.05,9.67a11.84,11.84,0,0,0,0,6.12c1.3,4.5,1.82,6.47,1.81,8,16.93,1.65,31.36,15.35,37.1,31.48,5.49,15.42,2.9,37.07-10.7,46.9C327.29,216.7,349.67,218.11,348,206.87Z"/><path class="cls-14" d="M303.81,317.68l-11.37,2.05s-3.87-10.45-9.27-26.62c5.82-1,11.57-2.21,17.26-3.66C301.53,301.16,302.68,305.49,303.81,317.68Z"/><polygon class="cls-14" points="303.66 316.38 310.54 360.19 287.36 358.63 291.12 316.38 303.66 316.38"/><path class="cls-8" d="M238.23,226.9s78.46,2.65,115.73-4.18c0,0-19.06,15.83-64.9,14.5S238.23,226.9,238.23,226.9Z"/><polygon points="292.14 350.64 304.79 351.08 303.71 316.71 310.54 360.3 287.36 358.41 289.12 316.09 292.14 350.64"/><path class="cls-11" d="M301,297.57c-.3-1.62-22.33-106.38-46-110.86s-21.4,20.7-16,39.67,44.21,73.13,44.21,73.13Z"/><path class="cls-15" d="M303,297.57c-.3-1.62-22.33-106.38-46-110.86s-21.4,20.7-16,39.67,44.21,73.13,44.21,73.13Z"/><polygon class="cls-11" points="303.19 304.4 281.81 308.74 275 294.26 302.29 287.65 303.19 304.4"/><path class="cls-11" d="M291.33,186.51S335,185.1,345,194.9c6.37,6.21-29.39,23.72-29.39,23.72Z"/><path d="M310.35,360.38s1.76-6.08-13.62-6.2S286.49,360,286.49,360Z"/><path class="cls-11" d="M271.83,203.36c-.07-5.84,1-11.39,6.12-14.27,7.73-4.37,21.23-4.49,28.11,12.16,10.71,25.95,6.8,94.13,6.8,94.13H295.65S272.24,235.32,271.83,203.36Z"/><path class="cls-16" d="M274.83,203.26c-.07-5.83,1-11.39,6.12-14.26,7.73-4.37,21.23-4.5,28.11,12.16,10.71,25.94,6.8,94.13,6.8,94.13H298.65S275.24,235.23,274.83,203.26Z"/><path class="cls-14" d="M321.11,316.76l-11.37,2.05s-3.87-10.46-9.27-26.66c5.82-.95,11.57-2.2,17.27-3.66C318.84,300.21,320,304.56,321.11,316.76Z"/><polygon class="cls-14" points="320.97 315.26 335.96 360.18 310.54 360.05 308.42 315.16 320.97 315.26"/><polygon points="315.21 349.76 326.64 350.39 321.2 315.96 336.14 360.38 310.11 360.05 308.42 315.16 315.21 349.76"/><polygon class="cls-11" points="320.28 303.52 297.66 308.21 290.71 293.76 319.59 286.69 320.28 303.52"/><path d="M336.14,360.38s.35-6.33-15-6.45-10.76,6.45-10.76,6.45Z"/><path class="cls-17" d="M319.07,90.19l3.49.47s-3.94,20.7-21.53,16.88-4.54-17.91-4.54-17.91l2.83-.13s-5.63,13.71,4.14,14.33S319.07,90.19,319.07,90.19Z"/><path class="cls-18" d="M97,146.29l-4.53,15.07,1.42.07,5.88,0,3.69-12.28Z"/><path class="cls-18" d="M124,169.26H73.18a5.14,5.14,0,0,1-5.12-5.12h0A5.14,5.14,0,0,1,73.18,159H124a5.13,5.13,0,0,1,5.12,5.12h0A5.13,5.13,0,0,1,124,169.26Z"/><path class="cls-19" d="M82.35,185l-3,14.89a4.16,4.16,0,0,0,8.15,1.67l3.21-15.67a4.53,4.53,0,0,0,.08-.89Z"/><path class="cls-19" d="M181.33,185l-3.06,14.89a4.16,4.16,0,0,0,8.15,1.67l3.22-15.67a3.86,3.86,0,0,0,.07-.89Z"/><path class="cls-19" d="M475.47,185l3,14.89a4.16,4.16,0,0,1-8.15,1.67l-3.21-15.67a4.53,4.53,0,0,1-.08-.89Z"/><path class="cls-20" d="M322,162.67l-56-.54a1.59,1.59,0,0,0,0,3.17h56.14c.87,0,1.53-.38,1.53-1.25A1.48,1.48,0,0,0,322,162.67Z"/><path class="cls-21" d="M274.55,162.86l-2.94,0a.74.74,0,0,0-.74.74.73.73,0,0,0,.73.73l2.94,0a.74.74,0,0,0,0-1.47Z"/><path class="cls-21" d="M281.5,162.9h-2.93a.72.72,0,0,0-.74.73.74.74,0,0,0,.73.74h2.94a.74.74,0,1,0,0-1.47Z"/><path class="cls-21" d="M295.1,163.72a.74.74,0,0,0-.73-.74l-6.51,0a.74.74,0,0,0,0,1.47l6.5,0a.75.75,0,0,0,.74-.73Z"/><path class="cls-20" d="M242.63,110.85a2.74,2.74,0,0,0-2.47-1.53l-74.55-.07a2.75,2.75,0,0,0-2.48,4L188,163.69a2.74,2.74,0,0,0,2.47,1.54l74.55.07a2.75,2.75,0,0,0,2.48-4Z"/><path class="cls-22" d="M241.11,110.85a2.77,2.77,0,0,0-2.47-1.53l-74.56-.07a2.75,2.75,0,0,0-2.47,4l24.87,50.47a2.75,2.75,0,0,0,2.47,1.54l74.56.07a2.75,2.75,0,0,0,2.47-4Z"/><path class="cls-23" d="M75.3,195.85,54.2,357.91a1.73,1.73,0,0,0,1.72,2h4a1.73,1.73,0,0,0,1.69-1.37L97,196.45a1.73,1.73,0,0,0-1.69-2.11H77A1.75,1.75,0,0,0,75.3,195.85Z"/><path class="cls-10" d="M70.19,195.79,49.06,358a1.67,1.67,0,0,0,1.65,1.88h4.14a1.66,1.66,0,0,0,1.63-1.34l32-162.21a1.66,1.66,0,0,0-1.63-2h-15A1.67,1.67,0,0,0,70.19,195.79Z"/><path class="cls-23" d="M464.84,196.4l31.94,162.07a1.74,1.74,0,0,0,1.7,1.4h4a1.74,1.74,0,0,0,1.72-1.91l-17-162.07a1.74,1.74,0,0,0-1.72-1.55h-19A1.73,1.73,0,0,0,464.84,196.4Z"/><path class="cls-10" d="M459.73,196.44l31.92,162a1.78,1.78,0,0,0,1.73,1.42h3.95a1.76,1.76,0,0,0,1.74-2l-21.1-162a1.77,1.77,0,0,0-1.75-1.53H461.46A1.76,1.76,0,0,0,459.73,196.44Z"/><path class="cls-24" d="M174.28,195.83,153.17,357.94a1.7,1.7,0,0,0,1.69,1.93h4.08a1.7,1.7,0,0,0,1.66-1.34L196,196.41a1.71,1.71,0,0,0-1.67-2.07H176A1.72,1.72,0,0,0,174.28,195.83Z"/><path class="cls-19" d="M376.49,185l3.06,14.89a4.16,4.16,0,0,1-8.15,1.67l-3.22-15.67a4.53,4.53,0,0,1-.08-.89Z"/><path class="cls-25" d="M169.17,195.77,148,358a1.64,1.64,0,0,0,1.63,1.86h4.17a1.65,1.65,0,0,0,1.61-1.33l32-162.24a1.65,1.65,0,0,0-1.61-2h-15A1.65,1.65,0,0,0,169.17,195.77Z"/><path class="cls-23" d="M365.86,196.38l31.95,162.11a1.71,1.71,0,0,0,1.68,1.38h4.09a1.72,1.72,0,0,0,1.7-1.89l-16.64-162.1a1.7,1.7,0,0,0-1.7-1.54h-19.4A1.72,1.72,0,0,0,365.86,196.38Z"/><path class="cls-26" d="M301.05,155.85s-12.38,6.06-14.66,7.77,6.14,1,6.14,1Z"/><path class="cls-14" d="M314.3,158.84s-8.57-4.59-11.88-3.67S286.68,166,288.1,166.85s6-1.42,6-1.42-1.27,1.69,5,1.73,16.75,0,16.75,0Z"/><path class="cls-25" d="M360.77,196.49l31.9,161.93a1.81,1.81,0,0,0,1.77,1.45h3.87a1.8,1.8,0,0,0,1.78-2L379,195.91a1.8,1.8,0,0,0-1.79-1.57H362.53A1.8,1.8,0,0,0,360.77,196.49Z"/><rect class="cls-10" x="62.46" y="170.54" width="432.87" height="17.21" rx="2.75"/><path class="cls-27" d="M495.34,185.4V172.89a2.35,2.35,0,0,0-2.35-2.35H64.81a2.35,2.35,0,0,0-2.35,2.35v8.17H370.2Z"/><path class="cls-14" d="M313.77,158.56c9.52.82,26.56-17,39.9-11.86s.23,8.77-6.69,11.1-23.08,7-34.17,7.5S312.25,158.43,313.77,158.56Z"/><polygon class="cls-8" points="376.94 129.38 382.2 165.78 397.45 165.91 402.56 129.38 376.94 129.38"/><polygon class="cls-28" points="397.8 164.14 402.38 130.99 377.12 130.99 381.83 164.14 397.8 164.14"/><polygon class="cls-29" points="399.34 152.96 401.81 135.07 377.7 135.07 380.24 152.96 399.34 152.96"/><path class="cls-30" d="M393.75,146.15c.13-1.77.33-3.56.54-5.35H378.51l.81,5.67h14.41C393.74,146.36,393.75,146.26,393.75,146.15Z"/><g class="cls-31"><polygon points="402.06 133.3 402.38 130.99 377.12 130.99 377.45 133.3 402.06 133.3"/></g><g class="cls-31"><path d="M381.7,163.26l.13.88h16l2.38-17.27-.64.8C396.88,154.92,389.52,161.12,381.7,163.26Z"/></g><g class="cls-31"><path class="cls-32" d="M382.07,135.07c1,7.58,3.66,25.27,4.19,29.07H392c.21-10.11.51-19,1.13-29.07Z"/></g><path class="cls-33" d="M402.08,128.42H377.41l.77-4.29a1.71,1.71,0,0,1,1.68-1.41h19.9A1.58,1.58,0,0,1,401.3,124Z"/><g class="cls-31"><path d="M378.29,128.42h23.79l-.55-3.09Q390,127.31,378.29,128.42Z"/></g><rect class="cls-33" x="375.04" y="127.47" width="29.35" height="2.64" rx="0.78"/><rect class="cls-10" x="169.97" y="164.99" width="347.27" height="11.09" rx="5.17"/><rect class="cls-34" x="42.55" y="164.99" width="347.27" height="11.09" rx="5.17"/><path class="cls-18" d="M99.42,150.92l-.24.08c-1.11.34-2.52-1-3.13-3L70.8,68.77c-.6-2-.19-3.87.92-4.21l.25-.08c1.11-.34,2.51,1,3.12,3l25.25,79.25C100.94,148.69,100.53,150.58,99.42,150.92Z"/><path class="cls-18" d="M106.59,151.12l-.25.07c-1.11.34-2.51-1-3.12-3L78,69c-.6-2-.19-3.87.92-4.21l.24-.08c1.11-.34,2.52,1,3.12,3l25.26,79.25C108.11,148.88,107.7,150.77,106.59,151.12Z"/><path class="cls-18" d="M69.88,62.27,69.77,62c-.47-1.06.73-2.63,2.66-3.5L150,22.88c1.94-.87,3.91-.71,4.38.35l.11.24c.47,1.06-.72,2.63-2.66,3.5L74.26,62.62C72.32,63.49,70.35,63.33,69.88,62.27Z"/><path class="cls-18" d="M78.19,68l-.11-.23c-.47-1.06.72-2.64,2.66-3.51l77.54-35.65c1.94-.87,3.91-.71,4.38.35l.11.24c.47,1.06-.72,2.63-2.66,3.5L82.57,68.33C80.63,69.19,78.66,69,78.19,68Z"/><polygon class="cls-18" points="96.45 149.16 106.69 146.29 106.34 151.19 96.73 153.86 96.45 149.16"/><path class="cls-18" d="M223.44,31c-5.26-11.1-20.31-15-33.63-8.74s-19.9,20.37-14.69,31.5c0,0,9.37-2.85,24.77-10.1C217.86,35.22,223.44,31,223.44,31Z"/><path class="cls-35" d="M208.68,19.9a13.47,13.47,0,0,1,1,5c.21,8.92-8.53,15.57-16,18.53a31.71,31.71,0,0,1-20.31.91,19.28,19.28,0,0,0,1.74,9.42s9.37-2.85,24.77-10.1c18-8.46,23.55-12.66,23.55-12.66C220.67,25.17,215.19,21.32,208.68,19.9Z"/><polygon class="cls-18" points="180.35 21.37 164.59 23.21 165.03 27.05 181.29 25.16 180.35 21.37"/><polygon class="cls-18" points="148.52 23.54 155.16 34.95 161.32 31.97 169.61 25.86 169.31 23.32 152.12 22.01 148.52 23.54"/><path class="cls-18" d="M77.69,56.11c.37-.17,8.89,10.37,8.89,10.37l-4,1.85,1.92,6.32-11.58.73L69.1,63a3.13,3.13,0,0,1,1.72-3.77Z"/><path class="cls-36" d="M181.42,28l-8.58-17.89a4.58,4.58,0,0,1,2.3-6.07l7.63-3.6a4.59,4.59,0,0,1,6.15,2.1l8.15,17.31s-.11,2.57-6.41,5.39C183.45,28.48,181.42,28,181.42,28Z"/><path class="cls-35" d="M188.92,2.56A4.55,4.55,0,0,0,183.56.18c6.27,6.73,7.95,19.08,2.65,26.85,1.2-.41,2.66-1,4.45-1.77,6.3-2.82,6.41-5.39,6.41-5.39Z"/><path class="cls-37" d="M315.33,93.05l1.47-15.29c.35-4-2.27-7.45-5.81-7.76s-7.07,3.29-7.42,7.25l-2.16,15.14C306.05,92.63,310.69,92.82,315.33,93.05Z"/><path class="cls-14" d="M320.39,10a30.35,30.35,0,0,0-9.88.18,33.31,33.31,0,0,0-18.3,10.71,34.92,34.92,0,0,0-3.78,5l-.16.24c-9.7,15.54-9,41.36,7.66,52.08a26.69,26.69,0,0,0,11.93,4.24c16.79,1.68,33.28-13.2,36.53-30C347.75,35.21,339.9,12.84,320.39,10Z"/><path class="cls-38" d="M302.42,86a12,12,0,0,0-3.1,3.53c-1.34,2.3-4.76,9.8-3.84,11.47.41.75,10.08-7.25,10.08-7.25s6.16,10.33,7.42,9.5c4.2-2.78,7-12.25,7-12.25a13.55,13.55,0,0,0-4-5,9.85,9.85,0,0,1-8.22,3.08C302.23,88.72,302.42,86,302.42,86Z"/><path class="cls-39" d="M344.39,52.49c-.13.71.19-.7,0,0Z"/><path class="cls-32" d="M318.72,63.22l-20-2.33a1.73,1.73,0,0,0-1.81,2.21c1.55,5.5,5.49,9.61,10.5,10.19s9.8-2.51,12.59-7.51A1.72,1.72,0,0,0,318.72,63.22Z"/><path class="cls-40" d="M296.8,44c-2.16-.78-4.79,1-5.87,4.1s-.21,6.14,2,6.92,4.8-1,5.88-4.1S299,44.74,296.8,44Z"/><path class="cls-41" d="M292,46a7.84,7.84,0,0,0-1.11,2.09c-1.09,3-.21,6.14,2,6.92,1.61.58,3.48-.29,4.78-2Q294.88,49.44,292,46Z"/><path class="cls-40" d="M327.76,47.09c-2.19-.79-4.85,1.06-5.94,4.14s-.21,6.21,2,7,4.85-1.06,5.94-4.14S329.94,47.88,327.76,47.09Z"/><path class="cls-41" d="M323.15,48.88a7.78,7.78,0,0,0-1.33,2.35c-1.09,3.07-.21,6.21,2,7,1.72.62,3.72-.4,5-2.36Q325.92,52.43,323.15,48.88Z"/><path class="cls-42" d="M304.66,37.85c5.28-1.74,10.43-3.75,14.27-8-1.08-.31-2.14-.65-3.18-1-1.21-.42-2.39-.87-3.54-1.36-3.26,3.65-9.34,5-14.3,7.2C300.12,35.79,302.37,36.87,304.66,37.85Z"/><path class="cls-14" d="M347.21,51c-2.86-1.41-6.79.72-8.78,4.76s-1.29,8.46,1.57,9.87,6.78-.73,8.77-4.77S350.06,52.37,347.21,51Z"/><path class="cls-37" d="M341.16,62.12a7.17,7.17,0,0,1-2.73-1.94c-5.15,9.33-14.06,17.77-24.18,20a30,30,0,0,1-16.46-.91,26.41,26.41,0,0,0,10.07,3.14c12.35,1.23,24.53-6.49,31.4-17.33a4.08,4.08,0,0,0,.74.48c2.81,1.39,6.67-.67,8.69-4.61A7.72,7.72,0,0,1,341.16,62.12Z"/><path class="cls-5" d="M344.3,143.69a11.46,11.46,0,0,1,2.18-.24c4.39-.06,8.34,1.43,12.16,3.3-1.33-6.71-5-16.32-13.39-30.61-8-13.6-13.21-21.7-13.56-22.17L327,95.55c.29,3.79-1.05,7.62-3.08,11.09C332.76,119.57,340.74,133.67,344.3,143.69Z"/><path class="cls-43" d="M342.35,139.88l1.6,6.44a26.34,26.34,0,0,1,7.78.44,15.16,15.16,0,0,1,7.69,4.31s1.68-7.81-1.07-13.87C358.35,137.2,351.79,134.26,342.35,139.88Z"/><path class="cls-11" d="M318.56,210.72s12.35,15.48,24.18,7.9c0,0,4.63-.31,5.63-4.55.8-3.41-.09-16.17-3.34-19.17S318.56,210.72,318.56,210.72Z"/><path class="cls-44" d="M283.53,61.15s-8.77-40.06,28.62-45.51c36.64-5.34,34.2,39.58,34.2,39.58s-1.86,1.13-3.15-2.49c-2.95-8.25-9.91-23.7-16.77-23,0,0-9.15,5.64-16.05,6.06a23,23,0,0,1-13.18-3.21C291.31,33.37,284.78,48.93,283.53,61.15Z"/><path class="cls-44" d="M295.58,31.45s-13.8-3.13-11.82-22.13c0,0,35.83-7.71,48.29,7.89,0,0,10-7.1,14.92-.08C353.7,26.7,346,51.6,346,51.6s-9.51-22.36-14.52-25.24S295.58,31.45,295.58,31.45Z"/><path class="cls-44" d="M300.2,9.2s-2.4-2.34-2.74-4.81c0,0,26.42-1.19,34.59,12.82S300.2,9.2,300.2,9.2Z"/><path class="cls-45" d="M283.89,63.22s-8.78-40.07,28.62-45.52c36.64-5.34,34.2,39.58,34.2,39.58s-1.86,1.13-3.15-2.48c-2.95-8.25-9.91-23.71-16.77-23,0,0-9.15,5.64-16.05,6.06a23,23,0,0,1-13.18-3.2C291.66,35.43,285.14,51,283.89,63.22Z"/><path class="cls-44" d="M327.88,14.53c-.21-.09-4.27-3.3-4.76-6.73,0,0,6.41.79,8.79,4.79,0,0-.68-3.21,3.31-5.87,0,0,1.36,3.64,0,6.49,0,0,.42-1,2.53-1.51a3.53,3.53,0,0,1-.47,2.94l.91,2.88-6.69,1.58Z"/><path class="cls-46" d="M285.94,23.48c-10.78,4.15-2.41,37.67-2.41,37.67,1.25-12.22,7.78-27.78,13.67-28.56A38.71,38.71,0,0,1,285.94,23.48Z"/><path class="cls-47" d="M346.28,16.28a6.77,6.77,0,0,0-3.86-2.12c-1.33.32-2.73.76-4.18,1.2a44.66,44.66,0,0,1-5.06,1.35,23,23,0,0,1-10.86-.7c-2-.6-4-1.33-6.13-2.1s-4.3-1.57-6.52-2.32a46.9,46.9,0,0,0-6.89-1.72c-.6-.09-1.19-.2-1.78-.27s-1.28-.18-1.9-.21l-1-.21-.76.05c-.57,0-1.13.25-1.68.28a19.85,19.85,0,0,0-6.32,2A14.13,14.13,0,0,0,285,14.94a11.67,11.67,0,0,0-1.15,1.55,22.25,22.25,0,0,0,.87,4l.42-.39a14,14,0,0,1,2.67-1.77,12.58,12.58,0,0,1,3.67-1.23,19.1,19.1,0,0,1,4.54-.19l1.29.13.76.08.6.13c.41.08.78.13,1.22.23s.91.23,1.38.33c1.87.48,3.83,1.05,5.89,1.74s4.19,1.42,6.42,2.11a69.24,69.24,0,0,0,6.95,1.9,27.58,27.58,0,0,0,7.58.54,31.7,31.7,0,0,0,6.84-1.73,35.49,35.49,0,0,0,5.28-2.67c1.51-.91,2.8-1.72,3.94-2.36A16.57,16.57,0,0,1,346.28,16.28Z"/><path class="cls-2" d="M345.92,66.55a13.83,13.83,0,0,1,.81,4.83c0,4.42-1.79,8-4,8s-4-3.58-4-8,1.79-8,4-8"/></g></g></g></svg>